<?xml version="1.0" encoding="utf-8"?>
<!-- Generator: Adobe Illustrator 25.0.0, SVG Export Plug-In . SVG Version: 6.00 Build 0)  -->
<svg version="1.1" xmlns="http://www.w3.org/2000/svg" xmlns:xlink="http://www.w3.org/1999/xlink" x="0px" y="0px"
	 viewBox="0 0 500 500" style="enable-background:new 0 0 500 500;" xml:space="preserve">
<style type="text/css">
	.st0{display:none;}
	.st1{fill:none;stroke:url(#SVGID_1_);stroke-width:17;stroke-linecap:round;stroke-linejoin:round;stroke-miterlimit:10;}
	.st2{fill:none;stroke:url(#SVGID_2_);stroke-width:17;stroke-linecap:round;stroke-linejoin:round;stroke-miterlimit:10;}
</style>
<g id="Layer_1" class="st0">
	
		<image style="display:inline;overflow:visible;" width="432" height="432" xlink:href="turtle copy.png"  transform="matrix(1.1574 0 0 1.1574 0 0)">
	</image>
</g>
<g id="Layer_2">
	<linearGradient id="SVGID_1_" gradientUnits="userSpaceOnUse" x1="13.5949" y1="247.976" x2="336.6034" y2="247.976">
		<stop  offset="0" style="stop-color:#E79D4C"/>
		<stop  offset="1" style="stop-color:#E8D765"/>
	</linearGradient>
	<path class="st1" d="M328.1,197.6c-20.7-41.7-46-55.9-59.2-61.4c-67.6-28-173.8,25.2-246.8,144.6c29.5,0,58.9,0,88.4,0
		c2.3,1.4,16.6,10.2,16.7,23.6c0.1,5.3-2.1,10.5-9.9,19.3C100.3,343,80,352.3,71,355.9c-10.8,4.4-27.5,9.7-48.9,11.2
		c18.2-20.9,36.3-41.8,54.5-62.7"/>
	<linearGradient id="SVGID_2_" gradientUnits="userSpaceOnUse" x1="140.7361" y1="254.3976" x2="496.3731" y2="254.3976">
		<stop  offset="0" style="stop-color:#E79D4C"/>
		<stop  offset="1" style="stop-color:#E8D765"/>
	</linearGradient>
	<path class="st2" d="M149.2,280.8c21.6-0.1,43.2-0.3,64.8-0.4c7.2-0.3,13.9,3.4,17.2,9.4c3.9,7.1,2.4,16.4-3.9,22.3
		c-15.7,18.3-31.5,36.6-47.2,54.9c12.6,0,35.2-1.7,59.7-13.7c34.4-16.8,51.9-43.7,58.4-54.9c26.6-41.3,42.9-70.2,53.6-91.8
		c3.6-7.3,11.9-24.3,29.2-39.9c13-11.7,24.5-16.7,28.8-18.5c6.6-2.7,18.3-7.3,32.6-6.4c20,1.3,44.7,11.1,45.5,23.6
		c0.1,0.9,0,2.6-5.6,11.6c-5.8,9.3-12.2,19.4-24.5,31.3c-1.4,1.4-7.9,7.6-16.7,14.2c-29.3,21.7-94.8,54.5-101.7,57.9
		c-3.5,12.6-8.6,27.2-15.9,42.9c-7.5,16.1-15.6,29.7-23.2,40.8c4.9-0.3,36.9-2.5,58.4-30c17.6-22.5,16.7-47.3,16.3-53.6"/>
</g>
</svg>
