<?xml version="1.0" encoding="utf-8"?>
<!-- Generator: Adobe Illustrator 25.0.0, SVG Export Plug-In . SVG Version: 6.00 Build 0)  -->
<svg version="1.1" id="Layer_1" xmlns="http://www.w3.org/2000/svg" xmlns:xlink="http://www.w3.org/1999/xlink" x="0px" y="0px"
	 viewBox="0 0 500 500" style="enable-background:new 0 0 500 500;" xml:space="preserve">
<style type="text/css">
	.st0{display:none;}
	.st1{fill:none;stroke:url(#SVGID_1_);stroke-width:17;stroke-linecap:round;stroke-linejoin:round;stroke-miterlimit:10;}
	.st2{fill:none;stroke:url(#SVGID_2_);stroke-width:17;stroke-linecap:round;stroke-linejoin:round;stroke-miterlimit:10;}
</style>
<g id="Layer_1_1_" class="st0">
	
		<image style="display:inline;overflow:visible;enable-background:new    ;" width="432" height="432" xlink:href="turtle copy.png"  transform="matrix(1.1574 0 0 1.1574 0 0)">
	</image>
</g>
<g id="Layer_2_1_">
	<linearGradient id="SVGID_1_" gradientUnits="userSpaceOnUse" x1="13.6" y1="247.9899" x2="336.6" y2="247.9899">
		<stop  offset="0" style="stop-color:#E79D4C"/>
		<stop  offset="1" style="stop-color:#E8D765"/>
	</linearGradient>
	<path class="st1" d="M328.1,197.6c-20.7-41.7-46-55.9-59.2-61.4c-67.6-28-173.8,25.2-246.8,144.6c29.5,0,58.9,0,88.4,0
		c2.3,1.4,16.6,10.2,16.7,23.6c0.1,5.3-2.1,10.5-9.9,19.3C100.3,343,80,352.3,71,355.9c-10.8,4.4-27.5,9.7-48.9,11.2
		c18.2-20.9,36.3-41.8,54.5-62.7"/>
	<linearGradient id="SVGID_2_" gradientUnits="userSpaceOnUse" x1="140.7" y1="254.3913" x2="497.7014" y2="254.3913">
		<stop  offset="0" style="stop-color:#E79D4C"/>
		<stop  offset="1" style="stop-color:#E8D765"/>
	</linearGradient>
	<path class="st2" d="M149.2,280.8c21.6-0.1,43.2-0.3,64.8-0.4c7.2-0.3,13.9,3.4,17.2,9.4c3.9,7.1,2.4,16.4-3.9,22.3
		c-15.7,18.3-31.5,36.6-47.2,54.9c12.6,0,35.2-1.7,59.7-13.7c34.4-16.8,51.9-43.7,58.4-54.9c26.6-41.3,42.9-70.2,53.6-91.8
		c3.6-7.3,11.9-24.3,29.2-39.9c13-11.7,24.5-16.7,28.8-18.5c12.1-5.1,24.8-6.6,32.6-6.4c14.4,0.4,40.3,7.8,45.5,23.9
		c0.1,0.3,0.4,1.3,0.7,2.7c4.1,19.3-13.7,47.9-34.2,63.2c-34.2,25.5-76.9,14.4-83.4,12.6c-13,25-28.6,51.7-47.5,79.1
		c-8.3,12-16.6,23.4-24.9,34c9.4,0,39-1.2,65.7-22.8c17.5-14.1,26-30.8,29.8-39.9c-6.8,0-13.5,0.1-20.3,0.1"/>
</g>
</svg>
